<svg width="36" height="37" viewBox="0 0 36 37" fill="none" xmlns="http://www.w3.org/2000/svg">
<rect x="0.375" y="0.625" width="35.25" height="35.25" rx="7.625" fill="white" fill-opacity="0.5"/>
<rect x="0.375" y="0.625" width="35.25" height="35.25" rx="7.625" stroke="#E8E8E8" stroke-width="0.75"/>
<g clip-path="url(#clip0_8919_1163)">
<path d="M25.2954 17.0354H10.7125C9.48163 17.0354 9.04145 15.5926 10.0848 15.0214L17.3804 11.1178C17.7635 10.9127 18.2281 10.9127 18.6194 11.1178L19.1329 11.3961L25.9068 15.0214C26.9665 15.5926 26.51 17.0354 25.2954 17.0354Z" stroke="#2F3841" stroke-width="1.1403"/>
<path d="M10.7137 17.0363V24.9291" stroke="#2F3841" stroke-width="1.1403" stroke-linecap="round"/>
<path d="M13.1426 17.0363V24.9291" stroke="#2F3841" stroke-width="1.1403" stroke-linecap="round"/>
<path d="M16.785 17.0363V24.9291" stroke="#2F3841" stroke-width="1.1403" stroke-linecap="round"/>
<path d="M19.2138 17.0363V24.9291" stroke="#2F3841" stroke-width="1.1403" stroke-linecap="round"/>
<path d="M22.8574 17.0363V24.9291" stroke="#2F3841" stroke-width="1.1403" stroke-linecap="round"/>
<path d="M25.285 17.0363V24.9291" stroke="#2F3841" stroke-width="1.1403" stroke-linecap="round"/>
<path d="M9.49988 25.5363L26.4998 25.5363" stroke="#2F3841" stroke-width="1.1403" stroke-linecap="round"/>
</g>
<defs>
<clipPath id="clip0_8919_1163">
<rect width="18" height="18" fill="white" transform="translate(9 9.25)"/>
</clipPath>
</defs>
</svg>
