<svg width="36" height="37" viewBox="0 0 36 37" fill="none" xmlns="http://www.w3.org/2000/svg">
<rect x="0.375" y="1.125" width="35.25" height="35.25" rx="7.625" fill="white" fill-opacity="0.5"/>
<rect x="0.375" y="1.125" width="35.25" height="35.25" rx="7.625" stroke="#E8E8E8" stroke-width="0.75"/>
<g clip-path="url(#clip0_8919_1176)">
<path d="M16.9163 16.4895L19.9586 16.4476" stroke="#2F3841" stroke-width="0.952941" stroke-miterlimit="10" stroke-linecap="round"/>
<path d="M16.9152 17.9836L19.9576 17.9417" stroke="#2F3841" stroke-width="0.952941" stroke-miterlimit="10" stroke-linecap="round"/>
<path d="M18.6861 16.5607C18.6861 16.5607 19.2287 19.6673 16.5973 19.7098L19.0555 21.5515" stroke="#2F3841" stroke-width="0.952941" stroke-linecap="round" stroke-linejoin="round"/>
<path d="M9.37585 15.9429L9.38184 21.9688C10.4163 21.8014 12.4845 20.7714 12.4827 18.9173C12.4808 17.0632 10.4108 16.239 9.37585 15.9429Z" stroke="#2F3841" stroke-width="0.952941" stroke-linecap="round"/>
<path d="M26.5572 21.9513L26.626 15.9258C25.5895 16.0803 23.5087 17.0845 23.4875 18.9385C23.4664 20.7925 25.5261 21.6423 26.5572 21.9513Z" stroke="#2F3841" stroke-width="0.952941" stroke-linecap="round"/>
<rect x="9.37402" y="13.501" width="17.25" height="10.875" rx="1.5" stroke="#2F3841"/>
</g>
<defs>
<clipPath id="clip0_8919_1176">
<rect width="18" height="18" fill="white" transform="translate(9 9.9375)"/>
</clipPath>
</defs>
</svg>
