<svg width="36" height="37" viewBox="0 0 36 37" fill="none" xmlns="http://www.w3.org/2000/svg">
<rect x="0.375" y="0.625" width="35.25" height="35.25" rx="7.625" fill="white" fill-opacity="0.5"/>
<rect x="0.375" y="0.625" width="35.25" height="35.25" rx="7.625" stroke="#E8E8E8" stroke-width="0.75"/>
<rect x="9.55" y="13.1973" width="16.9" height="10.1054" rx="1.23173" stroke="#2F3841" stroke-width="1.1"/>
<path d="M22.0446 20.223C21.9064 20.223 21.8009 20.1848 21.7281 20.1085C21.6554 20.0321 21.619 19.9247 21.619 19.7865V16.7145C21.619 16.5762 21.6554 16.4689 21.7281 16.3925C21.8009 16.3162 21.9064 16.278 22.0446 16.278C22.1792 16.278 22.2829 16.3162 22.3557 16.3925C22.4284 16.4689 22.4648 16.5762 22.4648 16.7145V19.7865C22.4648 19.9247 22.4284 20.0321 22.3557 20.1085C22.2865 20.1848 22.1829 20.223 22.0446 20.223Z" fill="#2F3841"/>
<path d="M17.2325 20.2232C17.1089 20.2232 17.0143 20.1887 16.9488 20.1195C16.8833 20.0504 16.8506 19.954 16.8506 19.8304V16.671C16.8506 16.5473 16.8851 16.4509 16.9543 16.3818C17.027 16.3127 17.1252 16.2781 17.2489 16.2781C17.358 16.2781 17.4435 16.3 17.5054 16.3436C17.5709 16.3836 17.6309 16.4546 17.6854 16.5564L18.9459 18.8591H18.7604L20.0208 16.5564C20.0754 16.4546 20.1336 16.3836 20.1955 16.3436C20.2609 16.3 20.3464 16.2781 20.4519 16.2781C20.5756 16.2781 20.6702 16.3127 20.7356 16.3818C20.8048 16.4509 20.8393 16.5473 20.8393 16.671V19.8304C20.8393 19.954 20.8066 20.0504 20.7411 20.1195C20.6756 20.1887 20.581 20.2232 20.4574 20.2232C20.3337 20.2232 20.2373 20.1887 20.1682 20.1195C20.1027 20.0504 20.07 19.954 20.07 19.8304V17.6204H20.19L19.1751 19.4375C19.1314 19.5066 19.0841 19.5593 19.0332 19.5957C18.9859 19.6285 18.9223 19.6448 18.8422 19.6448C18.7622 19.6448 18.6967 19.6266 18.6458 19.5903C18.5949 19.5539 18.5494 19.503 18.5094 19.4375L17.4835 17.615H17.6145V19.8304C17.6145 19.954 17.5818 20.0504 17.5163 20.1195C17.4544 20.1887 17.3599 20.2232 17.2325 20.2232Z" fill="#2F3841"/>
<path d="M13.9771 20.1738C13.8353 20.1738 13.7261 20.1356 13.6497 20.0592C13.5734 19.9829 13.5352 19.8737 13.5352 19.7319V16.7689C13.5352 16.6271 13.5734 16.5179 13.6497 16.4416C13.7261 16.3652 13.8353 16.327 13.9771 16.327H15.8815C15.9906 16.327 16.0725 16.3561 16.127 16.4143C16.1852 16.4688 16.2143 16.5489 16.2143 16.6544C16.2143 16.7635 16.1852 16.8472 16.127 16.9054C16.0725 16.9599 15.9906 16.9872 15.8815 16.9872H14.3427V17.8875H15.756C15.8687 17.8875 15.9524 17.9166 16.007 17.9748C16.0652 18.0294 16.0943 18.1113 16.0943 18.2204C16.0943 18.3295 16.0652 18.4132 16.007 18.4714C15.9524 18.526 15.8687 18.5532 15.756 18.5532H14.3427V19.5136H15.8815C15.9906 19.5136 16.0725 19.5427 16.127 19.6009C16.1852 19.6555 16.2143 19.7355 16.2143 19.841C16.2143 19.9501 16.1852 20.0338 16.127 20.092C16.0725 20.1465 15.9906 20.1738 15.8815 20.1738H13.9771Z" fill="#2F3841"/>
</svg>
