<svg width="36" height="36" viewBox="0 0 36 36" fill="none" xmlns="http://www.w3.org/2000/svg">
<rect x="0.375" y="0.375" width="35.25" height="35.25" rx="7.625" fill="white" fill-opacity="0.5"/>
<rect x="0.375" y="0.375" width="35.25" height="35.25" rx="7.625" stroke="#E8E8E8" stroke-width="0.75"/>
<path d="M23.6288 19.1942L23.6276 19.1966C22.4694 21.506 20.2865 23.9967 18.8846 25.4792C18.7583 25.6056 18.6313 25.7326 18.5174 25.8539C18.2193 26.1517 17.7655 26.1462 17.4799 25.8523L17.4784 25.8508C16.4495 24.8002 14.7579 22.956 13.4471 21.0149C12.3542 19.3902 11.596 17.8009 11.596 16.5916C11.596 13.4164 13.7249 10.7773 16.5484 10.0999L16.5484 10.1L16.5581 10.0975C16.7307 10.0527 16.9072 10.0198 17.0974 9.99259L17.0974 9.99266L17.1061 9.99129C17.395 9.94532 17.6874 9.925 17.9994 9.925C21.5152 9.925 24.4028 12.8911 24.4028 16.5916C24.4028 16.9782 24.3228 17.4099 24.179 17.8905C24.0438 18.3085 23.8593 18.7403 23.6288 19.1942Z" stroke="#2F3841" stroke-width="1.1"/>
<path d="M17.9993 18.0022C19.2107 18.0022 20.1928 17.0202 20.1928 15.8087C20.1928 14.5973 19.2107 13.6152 17.9993 13.6152C16.7878 13.6152 15.8058 14.5973 15.8058 15.8087C15.8058 17.0202 16.7878 18.0022 17.9993 18.0022Z" stroke="#2F3841" stroke-width="1.1" stroke-miterlimit="10"/>
</svg>
