<svg width="36" height="36" viewBox="0 0 36 36" fill="none" xmlns="http://www.w3.org/2000/svg">
<path d="M30.5746 17.9887C30.5746 18.0605 30.5746 18.1324 30.5506 18.2162C30.3232 19.3654 28.4676 20.2273 28.1205 21.2808C27.7493 22.454 28.8866 24.4173 28.1803 25.375C27.462 26.3567 25.2473 25.8778 24.2537 26.5961C23.284 27.3144 23.0686 29.5769 21.8954 29.948C21.3088 30.1396 20.6144 29.7685 19.9201 29.3734C19.2617 29.0023 18.6033 28.6192 18.0047 28.6192C16.7597 28.6192 15.2513 30.3072 14.114 29.948C12.9408 29.5769 12.7254 27.3144 11.7557 26.5961C10.774 25.8778 8.54736 26.3686 7.82908 25.375C7.74529 25.2553 7.6974 25.1356 7.64952 24.9919C7.37418 23.9624 8.21217 22.3104 7.87697 21.2808C7.50586 20.1555 5.42285 19.2457 5.42285 17.9887C5.42285 16.7317 7.50586 15.8339 7.87697 14.7086C8.24808 13.5354 7.11081 11.5841 7.81711 10.6144C8.39174 9.8123 9.95998 9.9799 11.0613 9.68062C11.3247 9.62076 11.5522 9.52499 11.7437 9.39331C12.7134 8.687 12.9289 6.42442 14.1021 6.05331C15.2274 5.6822 16.7357 7.37016 17.9927 7.37016C19.2497 7.37016 20.7461 5.69417 21.8834 6.05331C23.0566 6.42442 23.2721 8.687 24.2417 9.39331C25.2234 10.1116 27.4501 9.62076 28.1683 10.6144C28.8746 11.596 27.7374 13.5474 28.1085 14.7086C28.4796 15.8339 30.5626 16.7437 30.5626 17.9887H30.5746Z" fill="url(#paint0_linear_8919_1127)"/>
<path d="M14.4077 16.0039C15.2892 16.0039 16.0039 15.2892 16.0039 14.4077C16.0039 13.5262 15.2892 12.8115 14.4077 12.8115C13.5262 12.8115 12.8115 13.5262 12.8115 14.4077C12.8115 15.2892 13.5262 16.0039 14.4077 16.0039Z" fill="white"/>
<path d="M21.5898 23.186C22.4714 23.186 23.186 22.4714 23.186 21.5898C23.186 20.7083 22.4714 19.9937 21.5898 19.9937C20.7083 19.9937 19.9937 20.7083 19.9937 21.5898C19.9937 22.4714 20.7083 23.186 21.5898 23.186Z" fill="white"/>
<path d="M14.5034 22.0556L21.4947 13.8193" stroke="white" stroke-width="1.91541" stroke-linecap="round" stroke-linejoin="round"/>
<defs>
<linearGradient id="paint0_linear_8919_1127" x1="6.83033" y1="6.43468" x2="26.6569" y2="29.8881" gradientUnits="userSpaceOnUse">
<stop stop-color="#37D089"/>
<stop offset="1" stop-color="#2B8D5F"/>
</linearGradient>
</defs>
</svg>
