<svg width="36" height="37" viewBox="0 0 36 37" fill="none" xmlns="http://www.w3.org/2000/svg">
<rect x="0.375" y="0.875" width="35.25" height="35.25" rx="7.625" fill="white" fill-opacity="0.5"/>
<rect x="0.375" y="0.875" width="35.25" height="35.25" rx="7.625" stroke="#E8E8E8" stroke-width="0.75"/>
<path d="M22.0003 19.2771L21.9996 19.2809C21.6381 21.1569 19.9782 22.5734 18.0011 22.5734H18.0008H18.0005H18.0002H17.9998H17.9995H17.9992H17.9988H17.9985H17.9982H17.9978H17.9975H17.9972H17.9968H17.9965H17.9962H17.9959H17.9955H17.9952H17.9949H17.9945H17.9942H17.9939H17.9936H17.9932H17.9929H17.9926H17.9922H17.9919H17.9916H17.9913H17.9909H17.9906H17.9903H17.9899H17.9896H17.9893H17.989H17.9886H17.9883H17.988H17.9877H17.9873H17.987H17.9867H17.9864H17.986H17.9857H17.9854H17.9851H17.9847H17.9844H17.9841H17.9838H17.9834H17.9831H17.9828H17.9825H17.9821H17.9818H17.9815H17.9812H17.9808H17.9805H17.9802H17.9799H17.9796H17.9792H17.9789H17.9786H17.9783H17.9779H17.9776H17.9773H17.977H17.9767H17.9763H17.976H17.9757H17.9754H17.975H17.9747H17.9744H17.9741H17.9738H17.9734H17.9731H17.9728H17.9725H17.9722H17.9718H17.9715H17.9712H17.9709H17.9706H17.9702H17.9699H17.9696H17.9693H17.969H17.9686H17.9683H17.968H17.9677H17.9674H17.9671H17.9667H17.9664H17.9661H17.9658H17.9655H17.9651H17.9648H17.9645H17.9642H17.9639H17.9636H17.9632H17.9629H17.9626H17.9623H17.962H17.9617H17.9613H17.961H17.9607H17.9604H17.9601H17.9598H17.9594H17.9591H17.9588H17.9585H17.9582H17.9579H17.9575H17.9572H17.9569H17.9566H17.9563H17.956H17.9556H17.9553H17.955H17.9547H17.9544H17.9541H17.9538H17.9534H17.9531H17.9528H17.9525H17.9522H17.9519H17.9516H17.9512H17.9509H17.9506H17.9503H17.95H17.9497H17.9494H17.949H17.9487H17.9484H17.9481H17.9478H17.9475H17.9472H17.9468H17.9465H17.9462H17.9459H17.9456H17.9453H17.945H17.9446H17.9443H17.944H17.9437H17.9434H17.9431H17.9428H17.9425H17.9421H17.9418H17.9415H17.9412H17.9409H17.9406H17.9403H17.94H17.9396H17.9393H17.939H17.9387H17.9384H17.9381H17.9378H17.9375H17.9371H17.9368H17.9365H17.9362H17.9359H17.9356H17.9353H17.935H17.9346H17.9343H17.934H17.9337H17.9334H17.9331H17.9328H17.9325H17.9321H17.9318H17.9315H17.9312H17.9309H17.9306H17.9303H17.93H17.9297H17.9293H17.929H17.9287H17.9284H17.9281H17.9278H17.9275H17.9272H17.9268H17.9265H17.9262H17.9259H17.9256H17.9253H17.925H17.9247H17.9244H17.924H17.9237H17.9234H17.9231H17.9228H17.9225H17.9222H17.9219H17.9216H17.9212H17.9209H17.9206H17.9203H17.92H17.9197H17.9194H17.9191H17.9188H17.9184H17.9181H17.9178H17.9175H17.9172H17.9169H17.9166H17.9163H17.916H17.9156H17.9153H17.915H17.9147H17.9144H17.9141H17.9138H17.9135H17.9132H17.9128H17.9125H17.9122H17.9119H17.9116H17.9113H17.911H17.9107H17.9103H17.91H17.9097H17.9094H17.9091H17.9088H17.9085H17.9082H17.9079H17.9075H17.9072H17.9069H17.9066H17.9063H17.906H17.9057H17.9054H17.905H17.9047H17.9044H17.9041H17.9038H17.9035H17.9032H17.9029H17.9026H17.9022H17.9019H17.9016H17.9013H17.901H17.9007H17.9004H17.9001H17.8997H17.8994H17.8991H17.8988H17.8985H17.8982H17.8979H17.8975H17.8972H17.8969H17.8966H17.8963H17.896H17.8957H17.8954H17.895H17.8947H17.8944H17.8941H17.8938H17.8935H17.8932H17.8929H17.8925H17.8922H17.8919H17.8916H17.8913H17.891H17.8907H17.8903H17.89H17.8897H17.8894H17.8891H17.8888H17.8885H17.8881H17.8878H17.8875H17.8872H17.8869H17.8866H17.8863H17.8859H17.8856H17.8853H17.885H17.8847H17.8844H17.884H17.8837H17.8834H17.8831H17.8828H17.8825H17.8822H17.8818H17.8815H17.8812H17.8809H17.8806H17.8803H17.8799H17.8796H17.8793H17.879H17.8787H17.8784H17.878H17.8777H17.8774H17.8771H17.8768H17.8765H17.8761H17.8758H17.8755H17.8752H17.8749H17.8745H17.8742H17.8739H17.8736H17.8733H17.873H17.8726H17.8723H17.872H17.8717H17.8714H17.871H17.8707H17.8704H17.8701H17.8698H17.8695H17.8691H17.8688H17.8685H17.8682H17.8679H17.8675H17.8672H17.8669H17.8666H17.8663H17.8659H17.8656H17.8653H17.865H17.8646H17.8643H17.864H17.8637H17.8634H17.863H17.8627H17.8624H17.8621H17.8618H17.8614H17.8611H17.8608H17.8605H17.8601H17.8598H17.8595H17.8592H17.8589H17.8585H17.8582H17.8579H17.8576H17.8572H17.8569H17.8566H17.8563H17.8559H17.8556H17.8553H17.855H17.8546H17.8543H17.854H17.8537H17.8533H17.853H17.8527H17.8524H17.852H17.8517H17.8514H17.8511H17.8507H17.8504H17.8501H17.8498H17.8494H17.8491H17.8488H17.8484H17.8481H17.8479C16.0197 22.5072 14.4956 21.2306 14.0596 19.5263C13.9786 19.2017 13.9348 18.8575 13.9348 18.507C13.9348 16.9615 14.8006 15.6138 16.0744 14.927L16.0744 14.927L16.076 14.9261C16.6475 14.6155 17.3008 14.4406 18.0082 14.4406C20.2522 14.4406 22.0727 16.2599 22.0746 18.5035C22.0744 18.7729 22.0492 19.0328 22.0003 19.2771Z" stroke="#2F3841" stroke-width="1.1039"/>
<path d="M19.7247 19.2937L17.8389 18.9054V16.916" stroke="#2F3841" stroke-width="1.1039" stroke-linecap="round" stroke-linejoin="round"/>
<path d="M11.2232 15.7168C10.869 16.5738 10.6777 17.5159 10.6777 18.5005C10.6777 22.5451 13.9573 25.8247 18.0019 25.8247C22.0465 25.8247 25.3261 22.5451 25.3261 18.5005C25.3261 15.5184 23.5411 12.9543 20.984 11.8068" stroke="#2F3841" stroke-width="1.1039" stroke-miterlimit="10" stroke-linecap="round"/>
<path d="M22.0739 10L18.001 11.1758L21.0539 14.1154L22.0739 10Z" fill="#2F3841"/>
</svg>
