<svg width="36" height="37" viewBox="0 0 36 37" fill="none" xmlns="http://www.w3.org/2000/svg">
<rect x="0.375" y="1.125" width="35.25" height="35.25" rx="7.625" fill="white" fill-opacity="0.5"/>
<rect x="0.375" y="1.125" width="35.25" height="35.25" rx="7.625" stroke="#E8E8E8" stroke-width="0.75"/>
<path d="M20.2523 22.4512V27.2502L18.0001 25.6485L15.7479 27.2502V22.5292" stroke="#2F3841" stroke-width="1.1" stroke-linejoin="round"/>
<path d="M18.0001 19.379C19.6215 19.379 20.936 18.0698 20.936 16.4547C20.936 14.8396 19.6215 13.5303 18.0001 13.5303C16.3787 13.5303 15.0643 14.8396 15.0643 16.4547C15.0643 18.0698 16.3787 19.379 18.0001 19.379Z" stroke="#2F3841" stroke-width="1.1" stroke-linejoin="round"/>
<path d="M24.5216 16.4539C24.5216 17.0918 23.2741 17.5249 23.0861 18.1004C22.8981 18.6759 23.6384 19.7761 23.276 20.2736C22.9137 20.7711 21.6446 20.3984 21.1413 20.7632C20.638 21.128 20.6125 22.4409 20.0152 22.6341C19.4179 22.8272 18.6404 21.7796 18 21.7796C17.3596 21.7796 16.5625 22.8213 15.9847 22.6341C15.407 22.4468 15.3561 21.1241 14.8586 20.7632C14.3612 20.4023 13.0901 20.775 12.7239 20.2736C12.3577 19.7722 13.1078 18.6973 12.9139 18.1004C12.72 17.5035 11.4783 17.0918 11.4783 16.4539C11.4783 15.816 12.7259 15.3829 12.9139 14.8074C13.1019 14.2319 12.3616 13.1317 12.7239 12.6342C13.0862 12.1368 14.3553 12.5094 14.8586 12.1446C15.3619 11.7798 15.3874 10.4669 15.9847 10.2738C16.5821 10.0806 17.3596 11.1282 18 11.1282C18.6404 11.1282 19.4375 10.0865 20.0152 10.2738C20.593 10.461 20.6439 11.7837 21.1413 12.1446C21.6388 12.5055 22.9098 12.1329 23.276 12.6342C23.6423 13.1356 22.8922 14.2105 23.0861 14.8074C23.28 15.4044 24.5216 15.816 24.5216 16.4539Z" stroke="#2F3841" stroke-width="1.1" stroke-linejoin="round"/>
</svg>
