<svg width="36" height="37" viewBox="0 0 36 37" fill="none" xmlns="http://www.w3.org/2000/svg">
<rect x="0.375" y="0.875" width="35.25" height="35.25" rx="7.625" fill="white" fill-opacity="0.5"/>
<rect x="0.375" y="0.875" width="35.25" height="35.25" rx="7.625" stroke="#E8E8E8" stroke-width="0.75"/>
<path d="M25.8015 20.02L25.8009 20.0231C25.531 21.4132 24.9015 22.6651 24.0081 23.6978L24.0081 23.6977L24.0029 23.7039C23.6631 24.1085 23.2665 24.4805 22.848 24.7863L22.8359 24.7952L22.8242 24.8048C22.7277 24.8837 22.6628 24.9347 22.5972 24.9764L22.5828 24.9856L22.5689 24.9957C22.3947 25.1224 22.2183 25.2349 22.0202 25.3505L22.0202 25.3504L22.0153 25.3534C20.8401 26.0552 19.4671 26.4483 18 26.4483H17.7124C16.1123 26.3893 14.644 25.8583 13.4182 24.984L13.4111 24.9789L13.4038 24.9741C13.2576 24.8766 13.1157 24.7738 12.9846 24.6658L12.9847 24.6657L12.9747 24.6579C12.8644 24.5712 12.7594 24.4808 12.6651 24.3864L12.6536 24.375L12.6415 24.3642C12.2732 24.0368 11.9325 23.6712 11.6428 23.2769L11.6429 23.2768L11.6375 23.2697C11.0168 22.453 10.5589 21.5133 10.2971 20.4993C10.1336 19.8532 10.0517 19.1901 10.0517 18.5088C10.0517 15.4805 11.7366 12.8534 14.2341 11.5103C15.3484 10.9122 16.6336 10.5604 18 10.5604C22.3874 10.5604 25.9483 14.1214 25.9483 18.5088C25.9483 19.0253 25.8991 19.5317 25.8015 20.02Z" stroke="#2F3841" stroke-width="1.10333"/>
<path d="M12.1631 23.861C13.9139 21.5266 18.5826 18.2585 23.2513 23.861" stroke="#2F3841" stroke-width="1.10333"/>
<path d="M18.0002 18.8153C19.1605 18.8153 20.1011 17.8747 20.1011 16.7144C20.1011 15.5541 19.1605 14.6134 18.0002 14.6134C16.8399 14.6134 15.8993 15.5541 15.8993 16.7144C15.8993 17.8747 16.8399 18.8153 18.0002 18.8153Z" stroke="#2F3841" stroke-width="1.10333"/>
</svg>
