<svg width="36" height="37" viewBox="0 0 36 37" fill="none" xmlns="http://www.w3.org/2000/svg">
<rect x="0.375" y="0.875" width="35.25" height="35.25" rx="7.625" fill="white" fill-opacity="0.5"/>
<rect x="0.375" y="0.875" width="35.25" height="35.25" rx="7.625" stroke="#E8E8E8" stroke-width="0.75"/>
<g clip-path="url(#clip0_8919_1156)">
<path d="M26.5 13.8124V23.1876C26.5 23.9272 25.8618 24.5323 25.072 24.5323H10.9359C10.1462 24.5323 9.5 23.9272 9.5 23.1876V13.8124C9.5 13.0728 10.1462 12.4677 10.9359 12.4677H25.072C25.8618 12.4677 26.5 13.0728 26.5 13.8124Z" stroke="#2F3841" stroke-width="1.1"/>
<path d="M16.2998 18.4997C16.2998 16.9854 17.5274 15.7578 19.0417 15.7578H25.403C26.0088 15.7578 26.4998 16.2488 26.4998 16.8546V20.1449C26.4998 20.7506 26.0088 21.2417 25.403 21.2417H19.0417C17.5274 21.2417 16.2998 20.014 16.2998 18.4997V18.4997Z" stroke="#2F3841" stroke-width="1.1"/>
<ellipse cx="19.2749" cy="18.6367" rx="0.708333" ry="0.685484" fill="#2F3841"/>
</g>
<defs>
<clipPath id="clip0_8919_1156">
<rect width="18" height="18" fill="white" transform="translate(9 9.5)"/>
</clipPath>
</defs>
</svg>
